<svg width="24" height="24" viewBox="0 0 24 24" fill="none" xmlns="http://www.w3.org/2000/svg">
<rect x="24" y="24" width="24" height="24" rx="12" transform="rotate(-180 24 24)" fill="#D4D4D4"/>
<path d="M10.1703 4.99875C10.3197 4.99824 10.4673 5.03121 10.6023 5.09524C10.7373 5.15927 10.8562 5.25273 10.9503 5.36875L15.7803 11.3687C15.9274 11.5477 16.0078 11.7721 16.0078 12.0037C16.0078 12.2354 15.9274 12.4598 15.7803 12.6387L10.7803 18.6387C10.6106 18.843 10.3667 18.9714 10.1022 18.9958C9.83782 19.0201 9.57454 18.9385 9.37032 18.7687C9.16611 18.599 9.03768 18.3551 9.0133 18.0907C8.98892 17.8262 9.07059 17.563 9.24032 17.3587L13.7103 11.9987L9.39033 6.63875C9.26804 6.49196 9.19037 6.31322 9.16649 6.12367C9.14261 5.93412 9.17352 5.7417 9.25558 5.56917C9.33764 5.39664 9.4674 5.25123 9.62951 5.15014C9.79162 5.04905 9.97929 4.99652 10.1703 4.99875Z" fill="black"/>
</svg>
