<svg width="24" height="24" viewBox="0 0 24 24" fill="none" xmlns="http://www.w3.org/2000/svg">
<g clip-path="url(#clip0_524_2108)">
<path d="M22.75 23.7492H15.1C14.55 23.7492 14.1 23.2992 14.1 22.7492V17.9992C14.1 16.7992 13.15 15.8492 11.95 15.8492C10.75 15.8492 9.8 16.7992 9.8 17.9992V22.7492C9.8 23.2992 9.35 23.7492 8.8 23.7492H1.25C0.7 23.7492 0.25 23.2992 0.25 22.7492V9.94922C0.25 9.04922 0.7 8.19922 1.4 7.69922L11.45 0.449219C11.8 0.199219 12.25 0.199219 12.6 0.449219L22.65 7.69922C23.35 8.19922 23.8 9.04922 23.8 9.94922V22.7992C23.75 23.2992 23.3 23.7492 22.75 23.7492ZM16.1 21.7992H21.8V9.94922C21.8 9.69922 21.65 9.44922 21.45 9.29922L12 2.44922L2.55 9.24922C2.35 9.39922 2.2 9.64922 2.2 9.89922V21.7492H7.9V17.9992C7.9 15.7492 9.75 13.8992 12 13.8992C14.25 13.8992 16.1 15.7492 16.1 17.9992V21.7992Z" fill="white"/>
</g>
<defs>
<clipPath id="clip0_524_2108">
<rect width="24" height="24" fill="white"/>
</clipPath>
</defs>
</svg>
