<svg width="102" height="102" viewBox="0 0 102 102" fill="none" xmlns="http://www.w3.org/2000/svg">
<rect width="101.52" height="101.52" rx="50.76" fill="#83378F"/>
<path d="M52.9961 67H64.9961V59H56.9961V55H64.9961V39H60.9961V49L52.9961 45.8V67ZM48.9961 67V45.8L40.9961 49V39H36.9961V67H48.9961ZM40.9961 35V33H60.9961V35H66.9961C67.5265 35 68.0352 35.2107 68.4103 35.5858C68.7854 35.9609 68.9961 36.4696 68.9961 37V69C68.9961 69.5304 68.7854 70.0391 68.4103 70.4142C68.0352 70.7893 67.5265 71 66.9961 71H34.9961C34.4657 71 33.957 70.7893 33.5819 70.4142C33.2068 70.0391 32.9961 69.5304 32.9961 69V37C32.9961 36.4696 33.2068 35.9609 33.5819 35.5858C33.957 35.2107 34.4657 35 34.9961 35H40.9961ZM50.9961 43L57.9961 37H43.9961L50.9961 43Z" fill="#FBF7FF"/>
</svg>
