<svg width="56" height="56" viewBox="0 0 56 56" fill="none" xmlns="http://www.w3.org/2000/svg">
<path d="M44.4368 23.5333C44.4379 23.879 44.3616 24.2206 44.2135 24.5329C44.0653 24.8453 43.8491 25.1204 43.5806 25.3382L29.6969 36.5146C29.2828 36.855 28.7635 37.041 28.2275 37.041C27.6915 37.041 27.1722 36.855 26.7582 36.5146L12.8744 24.9449C12.4019 24.5521 12.1047 23.9877 12.0483 23.3758C11.9919 22.7639 12.1809 22.1547 12.5736 21.6822C12.9664 21.2096 13.5308 20.9125 14.1427 20.856C14.7545 20.7996 15.3637 20.9886 15.8363 21.3814L28.2391 31.7247L40.6419 21.7285C40.9815 21.4455 41.3951 21.2658 41.8337 21.2105C42.2723 21.1552 42.7176 21.2268 43.1168 21.4167C43.516 21.6065 43.8525 21.9068 44.0864 22.2819C44.3204 22.657 44.4419 23.0913 44.4368 23.5333Z" fill="#83378F"/>
</svg>
