<svg width="56" height="57" viewBox="0 0 56 57" fill="none" xmlns="http://www.w3.org/2000/svg">
<path d="M12.0771 32.7845C12.0759 32.4408 12.1518 32.1012 12.2991 31.7907C12.4464 31.4802 12.6614 31.2066 12.9283 30.9901L26.7311 19.8788C27.1428 19.5404 27.6591 19.3555 28.1919 19.3555C28.7248 19.3555 29.2411 19.5404 29.6527 19.8788L43.4556 31.3812C43.9254 31.7716 44.2208 32.3328 44.2769 32.9411C44.333 33.5494 44.1451 34.155 43.7546 34.6248C43.3642 35.0946 42.803 35.3901 42.1947 35.4461C41.5864 35.5022 40.9808 35.3144 40.511 34.9239L28.1804 24.6408L15.8499 34.5788C15.5122 34.8601 15.101 35.0388 14.665 35.0938C14.2289 35.1487 13.7863 35.0776 13.3894 34.8888C12.9925 34.7 12.658 34.4015 12.4254 34.0286C12.1928 33.6557 12.072 33.2239 12.0771 32.7845Z" fill="#83378F"/>
</svg>
