<svg width="102" height="102" viewBox="0 0 102 102" fill="none" xmlns="http://www.w3.org/2000/svg">
<rect width="101.52" height="101.52" rx="50.76" fill="#83378F"/>
<path fill-rule="evenodd" clip-rule="evenodd" d="M45.9878 69.1445C39.0678 69.1445 35.5878 69.1445 32.9678 66.9845C32.5278 66.6445 32.0878 66.2045 31.6678 65.6845C29.5078 63.0445 29.5078 59.5645 29.5078 52.6445C29.5078 45.7245 29.5078 42.2445 31.6678 39.6045C32.1078 39.0845 32.5478 38.6445 33.0078 38.2845C35.6078 36.1445 39.0878 36.1445 46.0078 36.1445C52.9278 36.1445 56.4078 36.1445 59.0278 38.3045C59.4678 38.6445 59.9078 39.0845 60.3278 39.6045C61.6938 41.2765 62.1958 43.2845 62.3798 46.2845L64.9878 42.8045C65.7878 41.7645 67.0278 41.1445 68.3278 41.1445C70.6278 41.1445 72.4878 43.0045 72.4878 45.3045V59.9845C72.4878 62.2845 70.6278 64.1445 68.3278 64.1445H68.3078C67.0078 64.1445 65.7678 63.5245 64.9878 62.4845L62.3798 59.0045C62.1958 62.0045 61.6938 64.0065 60.3278 65.6645C59.9078 66.1845 59.4478 66.6245 59.0078 66.9845C56.3878 69.1445 52.9078 69.1445 45.9878 69.1445ZM45.9878 39.1445C39.7878 39.1445 36.6678 39.1445 34.8678 40.6245C34.5478 40.8845 34.2478 41.1645 33.9678 41.5245C32.4878 43.3245 32.4878 46.4445 32.4878 52.6445C32.4878 58.8445 32.4878 61.9645 33.9678 63.7645C34.2478 64.1045 34.5478 64.4045 34.8478 64.6445C36.6678 66.1445 39.7878 66.1445 45.9878 66.1445C52.1878 66.1445 55.3078 66.1445 57.1078 64.6645H57.1278C57.4278 64.4245 57.7278 64.1445 58.0078 63.7845C59.4878 61.9845 59.4878 58.8645 59.4878 52.6645C59.4878 46.4645 59.4878 43.3445 58.0078 41.5445C57.7278 41.2045 57.4278 40.9045 57.1278 40.6645C55.3078 39.1645 52.1878 39.1645 45.9878 39.1645V39.1445ZM62.4878 54.1445L67.3878 60.6845C67.6078 60.9645 67.9478 61.1445 68.3278 61.1445C68.9678 61.1445 69.4878 60.6245 69.4878 59.9845V45.3045C69.4878 44.9969 69.3656 44.7018 69.1481 44.4843C68.9305 44.2667 68.6355 44.1445 68.3278 44.1445C67.9678 44.1445 67.6078 44.3245 67.3878 44.6045L62.4878 51.1445V54.1445ZM41.4878 52.6445C41.4878 55.1245 43.5078 57.1445 45.9878 57.1445C48.4678 57.1445 50.4878 55.1245 50.4878 52.6445C50.4878 50.1645 48.4678 48.1445 45.9878 48.1445C43.5078 48.1445 41.4878 50.1645 41.4878 52.6445Z" fill="#FBF7FF"/>
</svg>
