<svg width="80" height="81" viewBox="0 0 80 81" fill="none" xmlns="http://www.w3.org/2000/svg">
<rect y="0.826172" width="80" height="80" rx="24" fill="#83378F"/>
<g clip-path="url(#clip0_657_4267)">
<path d="M44.1668 32.4935H24.7224C24.354 32.4935 24.0008 32.3472 23.7403 32.0867C23.4798 31.8262 23.3335 31.473 23.3335 31.1046V25.549C23.3335 25.1807 23.4798 24.8274 23.7403 24.567C24.0008 24.3065 24.354 24.1602 24.7224 24.1602H44.1668C44.5352 24.1602 44.8885 24.3065 45.1489 24.567C45.4094 24.8274 45.5557 25.1807 45.5557 25.549V31.1046C45.5557 31.473 45.4094 31.8262 45.1489 32.0867C44.8885 32.3472 44.5352 32.4935 44.1668 32.4935ZM26.1113 29.7157H42.7779V26.8546H26.1113V29.7157Z" fill="white"/>
<path d="M44.1668 35.3809H24.7224C24.354 35.3809 24.0008 35.5272 23.7403 35.7877C23.4798 36.0481 23.3335 36.4014 23.3335 36.7697V42.2142C23.3335 42.5825 23.4798 42.9358 23.7403 43.1963C24.0008 43.4568 24.354 43.6031 24.7224 43.6031H40.5002L45.5557 38.4642V36.7697C45.5557 36.4014 45.4094 36.0481 45.1489 35.7877C44.8885 35.5272 44.5352 35.3809 44.1668 35.3809ZM42.7779 40.8253H26.1113V38.0475H42.7779V40.8253Z" fill="white"/>
<path d="M30.3612 59.5896V59.5063L30.8056 57.5757H20.5556V21.3813H48.3334V35.6174L51.1112 32.9924V19.9924C51.1112 19.624 50.9648 19.2708 50.7044 19.0103C50.4439 18.7498 50.0906 18.6035 49.7223 18.6035H19.1667C18.7984 18.6035 18.4451 18.7498 18.1846 19.0103C17.9242 19.2708 17.7778 19.624 17.7778 19.9924V58.8813C17.7778 59.2497 17.9242 59.6029 18.1846 59.8634C18.4451 60.1239 18.7984 60.2702 19.1667 60.2702H30.2778C30.2891 60.0416 30.3169 59.8142 30.3612 59.5896Z" fill="white"/>
<path d="M45.5555 42.4512L44.4722 43.5484C44.7409 43.493 44.9873 43.3592 45.1801 43.1639C45.3729 42.9686 45.5035 42.7206 45.5555 42.4512Z" fill="white"/>
<path d="M23.3335 53.242C23.3335 53.6103 23.4798 53.9636 23.7403 54.2241C24.0008 54.4845 24.354 54.6309 24.7224 54.6309H31.4446L31.8613 52.8253L32.0418 52.0614V51.992H26.1113V49.1586H34.9168L37.6946 46.3809H24.7224C24.354 46.3809 24.0008 46.5272 23.7403 46.7877C23.4798 47.0481 23.3335 47.4014 23.3335 47.7697V53.242Z" fill="white"/>
<path d="M61.5137 38.9783L56.8331 34.2977C56.6254 34.0894 56.3786 33.9242 56.1069 33.8114C55.8352 33.6987 55.5439 33.6406 55.2498 33.6406C54.9556 33.6406 54.6643 33.6987 54.3926 33.8114C54.1209 33.9242 53.8742 34.0894 53.6664 34.2977L34.6248 53.4505L33.0553 60.1311C32.9966 60.4193 32.9952 60.7162 33.0514 61.005C33.1076 61.2937 33.2202 61.5685 33.3828 61.8136C33.5454 62.0587 33.7547 62.2694 33.9988 62.4335C34.2429 62.5976 34.517 62.7119 34.8053 62.77C34.9485 62.7839 35.0927 62.7839 35.2359 62.77C35.4061 62.7965 35.5795 62.7965 35.7498 62.77L42.4859 61.2838L61.5137 42.2144C61.7215 42.0079 61.8865 41.7623 61.9991 41.4917C62.1116 41.2212 62.1696 40.931 62.1696 40.638C62.1696 40.345 62.1116 40.0548 61.9991 39.7843C61.8865 39.5138 61.7215 39.2682 61.5137 39.0616V38.9783ZM41.0692 58.7561L35.9859 59.8811L37.222 54.8394L51.4998 40.4088L55.4164 44.3255L41.0692 58.7561ZM56.9859 42.7561L53.0692 38.8394L55.2775 36.6588L59.222 40.6033L56.9859 42.7561Z" fill="white"/>
</g>
<defs>
<clipPath id="clip0_657_4267">
<rect width="50" height="50" fill="white" transform="translate(15 15.8262)"/>
</clipPath>
</defs>
</svg>
