<svg width="26" height="26" viewBox="0 0 26 26" fill="none" xmlns="http://www.w3.org/2000/svg">
<path d="M2.16666 12.9993C2.16666 7.01563 7.01627 2.16602 13 2.16602C18.9837 2.16602 23.8333 7.01563 23.8333 12.9993C23.8333 18.9831 18.9837 23.8327 13 23.8327C7.01627 23.8327 2.16666 18.9831 2.16666 12.9993ZM13 17.7389C13.5628 17.7389 14.0156 17.2861 14.0156 16.7233V14.015H16.7239C17.2868 14.015 17.7396 13.5622 17.7396 12.9993C17.7396 12.4365 17.2868 11.9837 16.7239 11.9837H14.0156V9.27539C14.0156 8.71257 13.5628 8.25977 13 8.25977C12.4372 8.25977 11.9844 8.71257 11.9844 9.27539V11.9837H9.27603C8.71321 11.9837 8.26041 12.4365 8.26041 12.9993C8.26041 13.5622 8.71321 14.015 9.27603 14.015H11.9844V16.7233C11.9844 17.2861 12.4372 17.7389 13 17.7389Z" fill="#83378F"/>
</svg>
