<svg width="77" height="78" viewBox="0 0 77 78" fill="none" xmlns="http://www.w3.org/2000/svg">
<rect x="0.45166" y="0.628906" width="76.41" height="76.41" rx="38.205" fill="#83378F"/>
<path d="M33.3345 38.6843C33.3345 40.0572 33.8799 41.3738 34.8506 42.3446C35.8214 43.3154 37.1381 43.8608 38.5109 43.8608C39.8838 43.8608 41.2005 43.3154 42.1713 42.3446C43.142 41.3738 43.6874 40.0572 43.6874 38.6843C43.6874 37.3114 43.142 35.9947 42.1713 35.024C41.2005 34.0532 39.8838 33.5078 38.5109 33.5078C37.1381 33.5078 35.8214 34.0532 34.8506 35.024C33.8799 35.9947 33.3345 37.3114 33.3345 38.6843Z" stroke="white" stroke-width="6" stroke-linecap="round" stroke-linejoin="round"/>
<path d="M38.509 54.2151C29.1913 54.2151 21.4266 49.0386 15.2148 38.6857C21.4266 28.3327 29.1913 23.1562 38.509 23.1562C47.8266 23.1562 55.5913 28.3327 61.8031 38.6857M48.8619 56.8033H64.3913M56.6266 49.0386V64.568" stroke="white" stroke-width="6" stroke-linecap="round" stroke-linejoin="round"/>
</svg>
