<svg width="63" height="63" viewBox="0 0 63 63" fill="none" xmlns="http://www.w3.org/2000/svg">
<g clip-path="url(#clip0_1085_6503)">
<path fill-rule="evenodd" clip-rule="evenodd" d="M31.79 62.3351C35.8531 62.3351 39.8764 61.5348 43.6302 59.9799C47.384 58.425 50.7948 56.146 53.6679 53.273C56.5409 50.3999 58.8199 46.9891 60.3748 43.2353C61.9297 39.4815 62.73 35.4582 62.73 31.3951C62.73 27.332 61.9297 23.3087 60.3748 19.5549C58.8199 15.801 56.5409 12.3902 53.6679 9.51719C50.7948 6.64415 47.384 4.36513 43.6302 2.81025C39.8764 1.25536 35.8531 0.455078 31.79 0.455078C23.5842 0.455078 15.7145 3.71482 9.91209 9.51719C4.10972 15.3196 0.849976 23.1893 0.849976 31.3951C0.849976 39.6009 4.10972 47.4706 9.91209 53.273C15.7145 59.0753 23.5842 62.3351 31.79 62.3351ZM30.9924 43.9086L48.1813 23.2819L42.9009 18.8816L28.1184 36.6171L20.4694 28.9646L15.6084 33.8256L25.9217 44.1389L28.5825 46.7998L30.9924 43.9086Z" fill="#481E4F"/>
</g>
<defs>
<clipPath id="clip0_1085_6503">
<rect width="61.88" height="61.88" fill="white" transform="translate(0.849976 0.455078)"/>
</clipPath>
</defs>
</svg>
