<svg width="80" height="80" viewBox="0 0 80 80" fill="none" xmlns="http://www.w3.org/2000/svg">
<rect width="80" height="80" rx="24" fill="#83378F"/>
<path d="M41.675 33.8617L50.15 20.576C50.7576 19.6272 51.7143 18.9559 52.8132 18.7073C53.912 18.4586 55.0646 18.6527 56.0214 19.2474C58.0536 20.5152 58.65 23.201 57.3429 25.2117L51.7179 33.8581M33.7536 48.151H46.25M40 41.9081V54.3974M20.4714 44.9438L19.6821 37.9081C19.6259 37.4087 19.6756 36.9031 19.8281 36.4242C19.9806 35.9454 20.2325 35.5041 20.5672 35.1293C20.9019 34.7544 21.312 34.4545 21.7706 34.249C22.2292 34.0434 22.726 33.937 23.2286 33.9367H56.7714C57.274 33.937 57.7708 34.0434 58.2294 34.249C58.688 34.4545 59.0981 34.7544 59.4328 35.1293C59.7675 35.5041 60.0194 35.9454 60.1719 36.4242C60.3244 36.9031 60.3741 37.4087 60.3179 37.9081L59.5286 44.9438C59.2793 47.1606 58.5144 49.2881 57.2952 51.1561C56.0759 53.0241 54.4361 54.5806 52.5071 55.701C53.1143 56.7902 53.5357 58.0045 53.7321 59.301C53.7886 59.6809 53.7625 60.0685 53.6556 60.4373C53.5487 60.8062 53.3636 61.1477 53.1127 61.4386C52.8619 61.7294 52.5513 61.9627 52.2021 62.1226C51.8529 62.2826 51.4733 62.3653 51.0893 62.3652H28.9107C28.5266 62.3653 28.1471 62.2826 27.7979 62.1226C27.4487 61.9627 27.1381 61.7294 26.8873 61.4386C26.6364 61.1477 26.4513 60.8062 26.3444 60.4373C26.2375 60.0685 26.2114 59.6809 26.2679 59.301C26.4643 58.0045 26.8857 56.7902 27.4893 55.701C25.561 54.5802 23.9219 53.0235 22.7033 51.1556C21.4846 49.2876 20.7203 47.1602 20.4714 44.9438Z" stroke="white" stroke-width="3" stroke-linecap="round" stroke-linejoin="round"/>
</svg>
