<svg width="102" height="102" viewBox="0 0 102 102" fill="none" xmlns="http://www.w3.org/2000/svg">
<rect width="101.52" height="101.52" rx="50.76" fill="#83378F"/>
<g clip-path="url(#clip0_895_5430)">
<path d="M39 45C40.5913 45 42.1174 44.3679 43.2426 43.2426C44.3679 42.1174 45 40.5913 45 39M39 45C37.4087 45 35.8826 44.3679 34.7574 43.2426C33.6321 42.1174 33 40.5913 33 39M39 45V51M45 39C45 37.4087 44.3679 35.8826 43.2426 34.7574C42.1174 33.6321 40.5913 33 39 33M45 39H51M39 33C37.4087 33 35.8826 33.6321 34.7574 34.7574C33.6321 35.8826 33 37.4087 33 39M39 33V27M33 39H27M31 31L35 35M43 43L47 47M47 31L43 35M35 43L31 47M63 51C64.5913 51 66.1174 50.3679 67.2426 49.2426C68.3679 48.1174 69 46.5913 69 45M63 51C61.4087 51 59.8826 50.3679 58.7574 49.2426C57.6321 48.1174 57 46.5913 57 45M63 51V57M69 45C69 43.4087 68.3679 41.8826 67.2426 40.7574C66.1174 39.6321 64.5913 39 63 39M69 45H75M63 39C61.4087 39 59.8826 39.6321 58.7574 40.7574C57.6321 41.8826 57 43.4087 57 45M63 39V33M57 45H51M55 37L59 41M67 49L71 53M71 37L67 41M59 49L55 53M45 69C46.5913 69 48.1174 68.3679 49.2426 67.2426C50.3679 66.1174 51 64.5913 51 63M45 69C43.4087 69 41.8826 68.3679 40.7574 67.2426C39.6321 66.1174 39 64.5913 39 63M45 69V75M51 63C51 61.4087 50.3679 59.8826 49.2426 58.7574C48.1174 57.6321 46.5913 57 45 57M51 63H57M45 57C43.4087 57 41.8826 57.6321 40.7574 58.7574C39.6321 59.8826 39 61.4087 39 63M45 57V51M39 63H33M37 55L41 59M49 67L53 71M53 55L49 59M41 67L37 71" stroke="#FBF7FF" stroke-width="2"/>
</g>
<defs>
<clipPath id="clip0_895_5430">
<rect width="48" height="48" fill="white" transform="translate(27 27)"/>
</clipPath>
</defs>
</svg>
