<svg width="77" height="77" viewBox="0 0 77 77" fill="none" xmlns="http://www.w3.org/2000/svg">
<rect x="0.45166" y="0.128906" width="76.41" height="76.41" rx="38.205" fill="#83378F"/>
<path d="M38.5118 12.3047C40.8309 12.3047 43.0776 12.6101 45.2155 13.1821L39.7127 18.6823C39.2953 19.1015 38.9271 19.5669 38.6153 20.0697H38.5118C34.9283 20.0697 31.4253 21.1323 28.4457 23.1232C25.4662 25.114 23.1439 27.9437 21.7726 31.2544C20.4013 34.5651 20.0425 38.2081 20.7416 41.7227C21.4407 45.2373 23.1663 48.4657 25.7002 50.9996C28.234 53.5335 31.4624 55.2591 34.977 55.9582C38.4917 56.6573 42.1346 56.2985 45.4453 54.9272C48.756 53.5558 51.5857 51.2336 53.5766 48.254C55.5675 45.2745 56.6301 41.7715 56.6301 38.188V38.0845C57.1305 37.7739 57.5921 37.4072 58.0148 36.9844L63.5176 31.4842C64.0897 33.6222 64.3951 35.8689 64.3951 38.188C64.3951 52.4834 52.8071 64.0714 38.5118 64.0714C24.2164 64.0714 12.6284 52.4834 12.6284 38.188C12.6284 23.8927 24.2164 12.3047 38.5118 12.3047ZM37.4402 25.2904C37.4402 27.493 37.3315 29.7268 37.4505 31.9268L36.0528 33.3245C35.572 33.8053 35.1907 34.3761 34.9304 35.0043C34.6702 35.6325 34.5363 36.3058 34.5363 36.9857C34.5363 37.6657 34.6702 38.339 34.9304 38.9672C35.1907 39.5954 35.572 40.1661 36.0528 40.6469C36.5336 41.1277 37.1044 41.5091 37.7326 41.7693C38.3608 42.0295 39.0341 42.1635 39.714 42.1635C40.394 42.1635 41.0673 42.0295 41.6955 41.7693C42.3236 41.5091 42.8944 41.1277 43.3752 40.6469L44.7729 39.2492C46.973 39.3683 49.2042 39.2596 51.4094 39.2596C51.205 41.7194 50.3013 44.0694 48.8051 46.0325C47.3089 47.9956 45.2825 49.4899 42.9649 50.3391C40.6473 51.1883 38.1352 51.3571 35.7248 50.8255C33.3145 50.2938 31.1064 49.084 29.3611 47.3387C27.6157 45.5933 26.4059 43.3853 25.8743 40.9749C25.3427 38.5646 25.5114 36.0525 26.3607 33.7349C27.2099 31.4173 28.7042 29.3909 30.6673 27.8947C32.6304 26.3984 34.9804 25.4948 37.4402 25.2904ZM55.3463 12.6334C55.8187 12.8293 56.2225 13.1607 56.5068 13.5859C56.791 14.0111 56.9429 14.511 56.9433 15.0224V19.7591H61.6773C62.1892 19.7592 62.6895 19.9111 63.115 20.1955C63.5406 20.4799 63.8723 20.8841 64.0681 21.357C64.264 21.8299 64.3152 22.3502 64.2154 22.8522C64.1156 23.3542 63.8692 23.8154 63.5073 24.1774L54.3524 33.322C53.8671 33.8074 53.2088 34.0802 52.5224 34.0803H46.2768L41.5453 38.8144C41.0596 39.3001 40.4009 39.5729 39.714 39.5729C39.0272 39.5729 38.3685 39.3001 37.8828 38.8144C37.3971 38.3287 37.1243 37.67 37.1243 36.9832C37.1243 36.2963 37.3971 35.6376 37.8828 35.1519L42.6168 30.423V24.1748C42.6166 23.8345 42.6834 23.4974 42.8136 23.183C42.9437 22.8685 43.1346 22.5828 43.3752 22.3422L52.525 13.1925C52.887 12.8303 53.3482 12.5836 53.8504 12.4836C54.3526 12.3836 54.8732 12.4349 55.3463 12.6308" fill="white"/>
</svg>
