<svg width="102" height="102" viewBox="0 0 102 102" fill="none" xmlns="http://www.w3.org/2000/svg">
<rect width="101.52" height="101.52" rx="50.76" fill="#83378F"/>
<path d="M49.4795 48.586C54.2366 48.586 58.0929 44.7297 58.0929 39.9727C58.0929 35.2157 54.2366 31.3594 49.4795 31.3594C44.7225 31.3594 40.8662 35.2157 40.8662 39.9727C40.8662 44.7297 44.7225 48.586 49.4795 48.586Z" fill="#FBF7FF"/>
<path d="M55 64.332H64.3333V66.1987H55V64.332Z" fill="#FBF7FF"/>
<path d="M47.0002 67.0003V71.0003C47.0002 71.3539 47.1407 71.6931 47.3907 71.9431C47.6408 72.1932 47.9799 72.3336 48.3335 72.3336H71.0002C71.3538 72.3336 71.693 72.1932 71.943 71.9431C72.1931 71.6931 72.3335 71.3539 72.3335 71.0003V57.667C72.3335 57.3134 72.1931 56.9742 71.943 56.7242C71.693 56.4741 71.3538 56.3336 71.0002 56.3336H61.6669V54.3736C61.6669 54.02 61.5264 53.6809 61.2763 53.4308C61.0263 53.1808 60.6872 53.0403 60.3335 53.0403C59.9799 53.0403 59.6408 53.1808 59.3907 53.4308C59.1407 53.6809 59.0002 54.02 59.0002 54.3736V56.3336H56.3335V51.5603C54.0679 51.1896 51.776 51.0023 49.4802 51.0003C44.4173 50.9788 39.4111 52.0665 34.8135 54.187C34.0569 54.5441 33.4185 55.1107 32.9742 55.8197C32.5299 56.5287 32.2983 57.3503 32.3069 58.187V67.0003H47.0002ZM69.6669 69.667H49.6669V59.0003H59.0002V59.5603C59.0002 59.9139 59.1407 60.2531 59.3907 60.5031C59.6408 60.7532 59.9799 60.8936 60.3335 60.8936C60.6872 60.8936 61.0263 60.7532 61.2763 60.5031C61.5264 60.2531 61.6669 59.9139 61.6669 59.5603V59.0003H69.6669V69.667Z" fill="#FBF7FF"/>
</svg>
