<svg width="24" height="25" viewBox="0 0 24 25" fill="none" xmlns="http://www.w3.org/2000/svg">
<path fill-rule="evenodd" clip-rule="evenodd" d="M16 6.5C16.2652 6.5 16.5196 6.60536 16.7071 6.79289C16.8946 6.98043 17 7.23478 17 7.5V9.5H18C18.7956 9.5 19.5587 9.81607 20.1213 10.3787C20.6839 10.9413 21 11.7044 21 12.5V20.5C21.2652 20.5 21.5196 20.6054 21.7071 20.7929C21.8946 20.9804 22 21.2348 22 21.5C22 21.7652 21.8946 22.0196 21.7071 22.2071C21.5196 22.3946 21.2652 22.5 21 22.5H3C2.73478 22.5 2.48043 22.3946 2.29289 22.2071C2.10536 22.0196 2 21.7652 2 21.5C2 21.2348 2.10536 20.9804 2.29289 20.7929C2.48043 20.6054 2.73478 20.5 3 20.5V12.5C3 11.7044 3.31607 10.9413 3.87868 10.3787C4.44129 9.81607 5.20435 9.5 6 9.5H7V7.5C7 7.23478 7.10536 6.98043 7.29289 6.79289C7.48043 6.60536 7.73478 6.5 8 6.5C8.26522 6.5 8.51957 6.60536 8.70711 6.79289C8.89464 6.98043 9 7.23478 9 7.5V9.5H11V7.5C11 7.23478 11.1054 6.98043 11.2929 6.79289C11.4804 6.60536 11.7348 6.5 12 6.5C12.2652 6.5 12.5196 6.60536 12.7071 6.79289C12.8946 6.98043 13 7.23478 13 7.5V9.5H15V7.5C15 7.23478 15.1054 6.98043 15.2929 6.79289C15.4804 6.60536 15.7348 6.5 16 6.5ZM17.707 16.207C17.4828 16.4312 17.2167 16.609 16.9238 16.7303C16.6309 16.8516 16.317 16.9141 16 16.9141C15.683 16.9141 15.3691 16.8516 15.0762 16.7303C14.7833 16.609 14.5172 16.4312 14.293 16.207C14.2545 16.1685 14.2089 16.1379 14.1586 16.1171C14.1083 16.0962 14.0544 16.0855 14 16.0855C13.9456 16.0855 13.8917 16.0962 13.8414 16.1171C13.7911 16.1379 13.7455 16.1685 13.707 16.207C13.4828 16.4312 13.2167 16.609 12.9238 16.7303C12.6309 16.8516 12.317 16.9141 12 16.9141C11.683 16.9141 11.3691 16.8516 11.0762 16.7303C10.7833 16.609 10.5172 16.4312 10.293 16.207C10.2545 16.1685 10.2089 16.1379 10.1586 16.1171C10.1083 16.0962 10.0544 16.0855 10 16.0855C9.94557 16.0855 9.89168 16.0962 9.8414 16.1171C9.79112 16.1379 9.74545 16.1685 9.707 16.207C9.48284 16.4312 9.21672 16.609 8.92383 16.7303C8.63094 16.8516 8.31702 16.9141 8 16.9141C7.68298 16.9141 7.36906 16.8516 7.07617 16.7303C6.78329 16.609 6.51716 16.4312 6.293 16.207C6.25455 16.1685 6.20888 16.1379 6.1586 16.1171C6.10832 16.0962 6.05443 16.0855 6 16.0855C5.94557 16.0855 5.89168 16.0962 5.8414 16.1171C5.79112 16.1379 5.74545 16.1685 5.707 16.207L5 16.914V20.5H19V16.914L18.293 16.207C18.2545 16.1685 18.2089 16.1379 18.1586 16.1171C18.1083 16.0962 18.0544 16.0855 18 16.0855C17.9456 16.0855 17.8917 16.0962 17.8414 16.1171C17.7911 16.1379 17.7455 16.1685 17.707 16.207ZM18 11.5H6C5.75507 11.5 5.51866 11.59 5.33563 11.7527C5.15259 11.9155 5.03566 12.1397 5.007 12.383L5 12.5V14.302C5.44746 14.0985 5.94637 14.0363 6.43009 14.1239C6.91381 14.2114 7.35928 14.4445 7.707 14.792C7.74545 14.8305 7.79112 14.8611 7.8414 14.8819C7.89168 14.9028 7.94557 14.9135 8 14.9135C8.05443 14.9135 8.10832 14.9028 8.1586 14.8819C8.20888 14.8611 8.25455 14.8305 8.293 14.792C8.51716 14.5678 8.78328 14.39 9.07617 14.2687C9.36906 14.1474 9.68298 14.0849 10 14.0849C10.317 14.0849 10.6309 14.1474 10.9238 14.2687C11.2167 14.39 11.4828 14.5678 11.707 14.792C11.7455 14.8305 11.7911 14.8611 11.8414 14.8819C11.8917 14.9028 11.9456 14.9135 12 14.9135C12.0544 14.9135 12.1083 14.9028 12.1586 14.8819C12.2089 14.8611 12.2545 14.8305 12.293 14.792C12.5172 14.5678 12.7833 14.39 13.0762 14.2687C13.3691 14.1474 13.683 14.0849 14 14.0849C14.317 14.0849 14.6309 14.1474 14.9238 14.2687C15.2167 14.39 15.4828 14.5678 15.707 14.792C15.7455 14.8305 15.7911 14.8611 15.8414 14.8819C15.8917 14.9028 15.9456 14.9135 16 14.9135C16.0544 14.9135 16.1083 14.9028 16.1586 14.8819C16.2089 14.8611 16.2545 14.8305 16.293 14.792C16.619 14.4669 17.0309 14.2416 17.4804 14.1424C17.93 14.0432 18.3985 14.0743 18.831 14.232L19 14.302V12.5C19 12.2551 18.91 12.0187 18.7473 11.8356C18.5845 11.6526 18.3603 11.5357 18.117 11.507L18 11.5ZM12.5 2.5C12.25 3.001 12.375 3.363 12.564 3.67L12.67 3.832L12.725 3.91C12.869 4.113 13 4.3 13 4.5C13 4.76522 12.8946 5.01957 12.7071 5.20711C12.5196 5.39464 12.2652 5.5 12 5.5C11.7348 5.5 11.4804 5.39464 11.2929 5.20711C11.1054 5.01957 11 4.76522 11 4.5C11 3.948 11.5 3 12.5 2.5ZM8.5 2.5C8.25 3.001 8.375 3.363 8.564 3.67L8.67 3.832L8.725 3.91C8.869 4.113 9 4.3 9 4.5C9 4.76522 8.89464 5.01957 8.70711 5.20711C8.51957 5.39464 8.26522 5.5 8 5.5C7.73478 5.5 7.48043 5.39464 7.29289 5.20711C7.10536 5.01957 7 4.76522 7 4.5C7 3.948 7.5 3 8.5 2.5ZM16.5 2.5C16.25 3.001 16.375 3.363 16.564 3.67L16.67 3.832L16.725 3.91C16.869 4.113 17 4.3 17 4.5C17 4.76522 16.8946 5.01957 16.7071 5.20711C16.5196 5.39464 16.2652 5.5 16 5.5C15.7348 5.5 15.4804 5.39464 15.2929 5.20711C15.1054 5.01957 15 4.76522 15 4.5C15 3.948 15.5 3 16.5 2.5Z" fill="#6C2E83"/>
</svg>
