<svg width="171" height="170" viewBox="0 0 171 170" fill="none" xmlns="http://www.w3.org/2000/svg">
<path fill-rule="evenodd" clip-rule="evenodd" d="M75.5066 9.87292C72.3102 7.44488 68.3845 6.17341 64.3716 6.26649H21.5559C19.2304 6.26489 16.9275 6.72174 14.7788 7.6109C12.6301 8.50005 10.6778 9.80408 9.03347 11.4484C7.38916 13.0927 6.08513 15.045 5.19597 17.1937C4.30682 19.3425 3.84997 21.6454 3.85157 23.9708V146.043C3.85799 150.736 5.72532 155.236 9.04413 158.555C12.3629 161.873 16.8624 163.741 21.5559 163.747H149.444C154.138 163.741 158.637 161.873 161.956 158.555C165.275 155.236 167.142 150.736 167.149 146.043V47.2365C167.142 42.543 165.275 38.0436 161.956 34.7248C158.637 31.406 154.138 29.5386 149.444 29.5322H84.4316L81.9787 19.7329C81.0073 15.8083 78.7237 12.3215 75.5066 9.87292ZM120.229 91.8736C115.398 91.8736 110.765 89.9546 107.349 86.5388C103.933 83.123 102.014 78.4901 102.014 73.6593C102.014 68.8286 103.933 64.1957 107.349 60.7799C110.765 57.3641 115.398 55.4451 120.229 55.4451C125.059 55.4451 129.692 57.3641 133.108 60.7799C136.524 64.1957 138.443 68.8286 138.443 73.6593C138.443 78.4901 136.524 83.123 133.108 86.5388C129.692 89.9546 125.059 91.8736 120.229 91.8736ZM68.0387 87.6115L134.412 148.569H21.5559C20.888 148.562 20.2492 148.294 19.7769 147.822C19.3046 147.35 19.0365 146.711 19.0301 146.043V115.722L58.9073 87.6115C60.1967 86.5602 61.8093 85.986 63.473 85.986C65.1367 85.986 66.7493 86.5602 68.0387 87.6115Z" fill="#83378F"/>
</svg>
