<svg width="171" height="170" viewBox="0 0 171 170" fill="none" xmlns="http://www.w3.org/2000/svg">
<g clip-path="url(#clip0_709_6871)">
<path d="M71.7938 106.251H25.2776L15.9913 132.792C15.2505 134.73 13.783 136.303 11.9007 137.176C10.0184 138.049 7.86988 138.153 5.91183 137.467C3.95378 136.78 2.34064 135.357 1.41536 133.5C0.490079 131.643 0.325628 129.498 0.956967 127.522L36.9757 24.587C37.8705 22.0459 39.5367 19.8477 41.7414 18.2996C43.9462 16.7514 46.5794 15.9305 49.2734 15.9516C51.9673 15.9726 54.5874 16.8346 56.7677 18.4171C58.9479 19.9995 60.5795 22.2235 61.4345 24.7782L95.7213 127.639C96.3571 129.635 96.181 131.802 95.2312 133.669C94.2815 135.537 92.6344 136.955 90.6466 137.617C88.6589 138.279 86.4903 138.132 84.6103 137.207C82.7304 136.282 81.2904 134.654 80.602 132.675L71.7938 106.251ZM105.05 59.947C112.381 46.4745 126.619 42.5007 138.625 42.5007C154.563 42.5007 170.5 52.4776 170.5 70.1363V130.157C170.502 132.014 169.855 133.812 168.671 135.243C167.488 136.673 165.842 137.646 164.018 137.992C162.194 138.339 160.307 138.037 158.681 137.14C157.056 136.243 155.794 134.807 155.115 133.079C149.197 136.213 141.813 138.126 133.313 138.126C125.131 138.126 117.226 135.671 111.234 130.593C105.103 125.408 101.438 117.853 101.438 108.907C101.438 101.533 104.253 93.9151 110.862 88.252C117.375 82.6632 126.725 79.6882 138.625 79.6882H154.563V70.1363C154.563 64.3988 149.25 58.4382 138.625 58.4382C129.392 58.4382 122.39 61.4345 119.075 67.5545C118.066 69.4143 116.36 70.7972 114.332 71.399C112.303 72.0007 110.119 71.772 108.259 70.7632C106.399 69.7544 105.016 68.0481 104.414 66.0197C103.813 63.9912 104.041 61.8068 105.05 59.947ZM66.4813 90.3132L49.0988 38.187L30.8557 90.3132H66.4813ZM154.563 95.6257H138.625C129.264 95.6257 124.016 97.9632 121.232 100.343C118.544 102.649 117.375 105.656 117.375 108.907C117.375 113.242 119.022 116.313 121.519 118.427C124.164 120.658 128.213 122.188 133.313 122.188C141.09 122.188 146.7 119.968 150.185 117.418C153.904 114.687 154.563 112.158 154.563 111.563V95.6257Z" fill="#83378F"/>
</g>
<defs>
<clipPath id="clip0_709_6871">
<rect width="170" height="170" fill="white" transform="translate(0.5)"/>
</clipPath>
</defs>
</svg>
