<svg width="171" height="170" viewBox="0 0 171 170" fill="none" xmlns="http://www.w3.org/2000/svg">
<path d="M35.9167 148.75C32.0208 148.75 28.6869 147.364 25.915 144.592C23.1431 141.82 21.7547 138.484 21.75 134.583V35.4167C21.75 31.5208 23.1383 28.1869 25.915 25.415C28.6917 22.6431 32.0256 21.2547 35.9167 21.25H135.083C138.979 21.25 142.315 22.6383 145.092 25.415C147.869 28.1917 149.255 31.5256 149.25 35.4167V134.583C149.25 138.479 147.864 141.815 145.092 144.592C142.32 147.369 138.984 148.755 135.083 148.75H35.9167ZM85.5 35.4167V78.8021C85.5 80.2188 86.0903 81.2529 87.2708 81.9046C88.4514 82.5562 89.6319 82.5256 90.8125 81.8125L99.4896 76.5C100.67 75.7917 101.91 75.4375 103.208 75.4375C104.507 75.4375 105.747 75.7917 106.927 76.5L115.604 81.8125C116.785 82.5208 117.965 82.5515 119.146 81.9046C120.326 81.2576 120.917 80.2235 120.917 78.8021V35.4167H85.5Z" fill="#83378F"/>
</svg>
