<svg width="171" height="170" viewBox="0 0 171 170" fill="none" xmlns="http://www.w3.org/2000/svg">
<path d="M85.5002 14.166H43.8856C39.8935 14.166 36.065 15.7519 33.2421 18.5747C30.4193 21.3975 28.8335 25.226 28.8335 29.2181V140.781C28.8335 144.773 30.4193 148.601 33.2421 151.424C36.065 154.247 39.8935 155.833 43.8856 155.833H127.115C131.107 155.833 134.935 154.247 137.758 151.424C140.581 148.601 142.167 144.773 142.167 140.781V70.8327H100.552C96.5602 70.8327 92.7316 69.2468 89.9088 66.424C87.086 63.6012 85.5002 59.7727 85.5002 55.7806V14.166ZM140.842 61.9785C140.092 60.3149 139.048 58.7997 137.761 57.5054L98.8239 18.5754C97.5298 17.2873 96.0147 16.2424 94.3508 15.4906V55.7806C94.3508 59.2019 97.1275 61.9785 100.549 61.9785H140.842Z" fill="#83378F"/>
</svg>
