<svg width="170" height="170" viewBox="0 0 170 170" fill="none" xmlns="http://www.w3.org/2000/svg">
<path d="M134.583 21.25C138.341 21.25 141.944 22.7426 144.601 25.3993C147.257 28.0561 148.75 31.6594 148.75 35.4167V134.583C148.75 138.341 147.257 141.944 144.601 144.601C141.944 147.257 138.341 148.75 134.583 148.75H35.4167C31.6594 148.75 28.0561 147.257 25.3993 144.601C22.7426 141.944 21.25 138.341 21.25 134.583V35.4167C21.25 31.6594 22.7426 28.0561 25.3993 25.3993C28.0561 22.7426 31.6594 21.25 35.4167 21.25H134.583ZM131.042 131.042V93.5C131.042 87.3757 128.609 81.5023 124.278 77.1717C119.948 72.8412 114.074 70.4083 107.95 70.4083C101.929 70.4083 94.9167 74.0917 91.5167 79.6167V71.7542H71.7542V131.042H91.5167V96.1208C91.5167 90.6667 95.9083 86.2042 101.363 86.2042C103.993 86.2042 106.515 87.249 108.375 89.1087C110.234 90.9684 111.279 93.4908 111.279 96.1208V131.042H131.042ZM48.7333 60.6333C51.8894 60.6333 54.9162 59.3796 57.1479 57.1479C59.3796 54.9162 60.6333 51.8894 60.6333 48.7333C60.6333 42.1458 55.3208 36.7625 48.7333 36.7625C45.5585 36.7625 42.5136 38.0237 40.2687 40.2687C38.0237 42.5136 36.7625 45.5585 36.7625 48.7333C36.7625 55.3208 42.1458 60.6333 48.7333 60.6333ZM58.5792 131.042V71.7542H38.9583V131.042H58.5792Z" fill="#83378F"/>
</svg>
